<?xml version="1.0" standalone="no"?>
<!DOCTYPE svg PUBLIC "-//W3C//DTD SVG 20010904//EN"
 "http://www.w3.org/TR/2001/REC-SVG-20010904/DTD/svg10.dtd">
<svg version="1.0" xmlns="http://www.w3.org/2000/svg"
 width="1474.000000pt" height="1474.000000pt" viewBox="0 0 1474.000000 1474.000000"
 preserveAspectRatio="xMidYMid meet">
<metadata>
Created by potrace 1.11, written by Peter Selinger 2001-2013
</metadata>
<g transform="translate(0.000000,1474.000000) scale(0.100000,-0.100000)"
fill="#000000" stroke="none">
<path d="M10280 14737 c-3 -3 -42 -8 -87 -11 -46 -4 -91 -9 -100 -10 -10 -2
-38 -7 -63 -11 -36 -6 -142 -29 -230 -50 -93 -23 -273 -82 -337 -111 -17 -8
-33 -14 -36 -14 -2 0 -22 -8 -43 -17 -22 -9 -41 -17 -44 -18 -19 -2 -297 -146
-391 -203 -386 -230 -726 -534 -967 -862 -18 -25 -47 -65 -65 -90 -34 -46
-127 -194 -179 -285 -56 -97 -156 -311 -206 -440 -104 -268 -163 -507 -189
-765 -10 -100 -7 -425 4 -475 l9 -40 134 1 c140 0 252 9 330 24 25 5 63 12 84
15 43 6 224 53 238 61 5 3 19 7 33 10 63 11 426 168 466 201 8 7 19 13 22 13
12 0 189 111 287 181 218 154 472 393 612 575 12 16 25 31 28 34 13 11 141
191 185 260 254 394 436 855 500 1260 3 19 8 49 11 65 24 136 34 379 24 603
-3 64 -17 111 -30 99z"/>
<path d="M9977 11184 c-1 -1 -47 -5 -102 -8 -299 -21 -571 -80 -947 -206 -195
-65 -280 -97 -613 -228 -351 -138 -568 -209 -691 -227 -21 -4 -47 -8 -57 -11
-9 -3 -47 -5 -85 -5 -220 1 -403 53 -962 274 -571 226 -812 297 -1172 346
-168 22 -447 21 -650 -4 -18 -3 -55 -7 -83 -11 -267 -32 -615 -131 -915 -262
-610 -264 -1171 -736 -1561 -1312 -139 -206 -314 -532 -389 -725 -17 -44 -35
-89 -40 -100 -5 -11 -18 -47 -30 -80 -11 -33 -23 -67 -27 -75 -3 -8 -7 -19 -8
-25 -2 -5 -15 -48 -30 -95 -56 -178 -80 -268 -111 -411 -8 -41 -17 -83 -20
-94 -9 -42 -18 -93 -33 -183 -10 -57 -14 -82 -26 -177 -4 -27 -8 -61 -10 -75
-4 -22 -9 -72 -20 -195 -25 -260 -25 -863 -1 -1100 2 -16 6 -66 10 -110 4 -44
9 -96 11 -115 3 -19 9 -73 15 -120 6 -47 12 -96 14 -110 3 -14 7 -43 10 -65 3
-22 8 -58 11 -80 6 -41 51 -291 60 -335 3 -14 8 -38 10 -55 12 -67 69 -312
115 -491 209 -810 580 -1714 979 -2384 114 -191 349 -554 370 -570 3 -3 11
-12 16 -21 27 -45 281 -397 294 -409 3 -3 33 -41 66 -85 62 -83 225 -285 260
-321 11 -11 43 -47 70 -78 92 -107 280 -291 385 -376 30 -25 63 -53 75 -63 46
-43 277 -189 370 -235 93 -47 276 -116 331 -126 182 -34 200 -36 305 -38 83
-1 233 7 293 17 11 2 39 6 60 10 132 19 394 95 566 165 56 22 349 144 385 160
164 74 486 175 620 196 28 4 52 9 55 9 36 9 112 20 220 32 143 15 566 8 665
-11 11 -2 45 -7 75 -12 30 -4 57 -8 60 -9 3 -1 23 -5 45 -9 22 -5 81 -19 130
-32 50 -14 97 -27 105 -29 65 -17 309 -109 432 -163 24 -11 77 -34 118 -52 41
-17 89 -38 105 -45 114 -51 394 -144 480 -160 214 -40 296 -49 460 -49 109 0
251 9 275 18 8 3 33 8 55 11 22 3 74 15 115 26 491 138 920 482 1417 1136 201
266 480 668 635 918 153 247 387 689 493 930 26 61 58 133 70 160 50 112 157
390 208 541 l55 161 -91 42 c-217 101 -466 257 -674 423 -131 105 -364 329
-469 453 -222 260 -397 554 -527 887 -42 106 -110 322 -121 384 -3 13 -7 32
-10 42 -14 45 -55 287 -62 361 -3 36 -10 95 -14 131 -8 69 -6 558 3 600 3 14
8 52 11 85 12 111 39 256 78 403 86 332 236 661 437 957 55 82 163 227 191
257 8 9 35 41 60 72 44 54 303 313 369 369 79 68 263 208 344 261 l87 58 -22
31 c-416 598 -1031 1044 -1743 1264 -139 43 -352 96 -430 107 -11 2 -36 6 -55
10 -141 25 -268 38 -500 52 -105 6 -249 11 -253 8z"/>
</g>
</svg>
